<svg xmlns="http://www.w3.org/2000/svg" width="14" height="14" fill="none" viewBox="0 0 14 14" aria-label="" class="icon-sm">
  <path fill="currentColor" fill-rule="evenodd" d="M6.319 1.334a.667.667 0 0 1-.512.792 5.43 5.43 0 0 0-2.602 1.362.667.667 0 1 1-.918-.967A6.76 6.76 0 0 1 5.527.822a.667.667 0 0 1 .792.512m1.363 0a.667.667 0 0 1 .791-.512 6.76 6.76 0 0 1 3.24 1.699.667.667 0 1 1-.917.967 5.43 5.43 0 0 0-2.602-1.362.667.667 0 0 1-.512-.792M1.51 4.614c.348.12.533.5.413.848a4.7 4.7 0 0 0 0 3.076.667.667 0 0 1-1.26.435 6.04 6.04 0 0 1 0-3.945.666.666 0 0 1 .847-.413m10.979 0a.667.667 0 0 1 .847.414A6 6 0 0 1 13.667 7a6 6 0 0 1-.33 1.973.667.667 0 1 1-1.26-.435 4.7 4.7 0 0 0 0-3.076.667.667 0 0 1 .413-.847M2.27 10.352a.667.667 0 0 1 .479.812q-.052.2-.111.397.629-.097 1.228-.267a.67.667 0 0 1 .496.054c.445.238.93.417 1.445.528a.667.667 0 1 1-.28 1.303 7 7 0 0 1-1.553-.533c-.73.189-1.479.305-2.266.354a.667.667 0 0 1-.664-.905c.164-.425.305-.844.414-1.264a.667.667 0 0 1 .812-.48m9.468.186a.666.666 0 0 1-.024.942 6.76 6.76 0 0 1-3.24 1.7.667.667 0 0 1-.28-1.304 5.43 5.43 0 0 0 2.601-1.362.667.667 0 0 1 .943.024" clip-rule="evenodd"/>
</svg>
